<svg width="77" height="67" viewBox="0 0 77 67" fill="none" xmlns="http://www.w3.org/2000/svg">
<path d="M55.8602 49.7688C58.02 44.1678 63.1904 41.1697 63.1904 41.1697L52.915 35.0086C53.4059 33.2295 53.6677 31.4503 53.6677 29.803V27.7274H59.9507C59.9507 27.7274 59.6889 22.3241 54.1258 22.3241H53.9622L49.7735 2.06175C49.5117 0.776827 48.0391 -0.145687 46.4683 0.0190475L39.0727 1.43576C38.8763 1.46871 38.68 1.50166 38.5164 1.50166C38.32 1.50166 38.1237 1.46871 37.96 1.43576L30.5644 0.0190475C28.9936 -0.145687 27.521 0.776827 27.2592 2.06175L23.0051 22.357C18.031 22.7853 17.0493 27.6944 17.0493 27.6944H23.3323V29.803C23.3323 31.4503 23.5941 33.1965 24.085 34.9757L13.8096 41.1367C13.8096 41.1367 18.98 44.1349 21.1398 49.7359C21.1398 49.7359 8.96643 51.6468 6.93753 54.0848C4.90863 56.5558 0 67 0 67H38.32H38.68H77C77 67 72.1241 56.5558 70.0625 54.0848C68.0336 51.6797 55.8602 49.7688 55.8602 49.7688ZM37.3383 27.7274H40.3489H51.1152V29.8359C51.1152 31.4503 50.8206 33.2295 50.2643 35.0416C49.6099 37.216 48.5627 39.4235 47.2537 41.3344C46.0429 43.1135 44.6358 44.5961 43.1632 45.6175C41.6252 46.6718 40.0217 47.2319 38.4836 47.2319C36.9129 47.2319 35.3421 46.7047 33.8041 45.6175C32.3315 44.6291 30.9244 43.1465 29.7136 41.3344C28.4046 39.4235 27.3901 37.216 26.7029 35.0416C26.1466 33.2624 25.8521 31.4503 25.8521 29.8359V27.7274H37.3383Z" fill="white"/>
</svg>
